<svg width="258" height="40" viewBox="0 0 258 40" fill="none" xmlns="http://www.w3.org/2000/svg">
<path d="M0 34.6667C0 31.7211 2.38166 29.3333 5.31959 29.3333C8.25751 29.3333 10.6392 31.7211 10.6392 34.6667C10.6392 37.6122 8.25751 40 5.31959 40C2.38166 40 0 37.6122 0 34.6667Z" fill="#2E71E8"/>
<path d="M0 20C0 17.0545 2.38166 14.6667 5.31959 14.6667H16.6237C19.5616 14.6667 21.9433 17.0545 21.9433 20C21.9433 22.9455 19.5616 25.3333 16.6237 25.3333H5.31959C2.38166 25.3333 0 22.9455 0 20Z" fill="#2E71E8"/>
<path d="M0 5.33333C0 2.38781 2.38166 0 5.31959 0H27.9278C30.8658 0 33.2474 2.38781 33.2474 5.33333C33.2474 8.27885 30.8658 10.6667 27.9278 10.6667H5.31959C2.38166 10.6667 0 8.27885 0 5.33333Z" fill="#2E71E8"/>
<path d="M58.8812 36H64.5399V18.98H69.2145V13.8H64.5399V13.06C64.5399 11.0867 65.7701 9.85333 67.7383 9.85333C68.2796 9.85333 68.5748 9.952 68.8208 10.0013L69.2145 10.1V5.16667C68.9685 5.11733 68.7224 5.01867 68.4272 4.92C67.8859 4.772 67.2462 4.67333 66.5081 4.67333C62.0304 4.67333 58.8812 7.88 58.8812 12.8133V13.8H56.1748V18.98H58.8812V36Z" fill="white"/>
<path d="M83.6657 18.4867C86.8641 18.4867 89.3244 20.904 89.3244 24.6533C89.3244 28.4027 86.8641 30.82 83.6657 30.82C80.4673 30.82 78.007 28.4027 78.007 24.6533C78.007 20.904 80.4673 18.4867 83.6657 18.4867ZM83.6657 13.06C77.5642 13.06 72.3483 18.24 72.3483 24.6533C72.3483 31.0667 77.5642 36.2467 83.6657 36.2467C89.7673 36.2467 94.9832 31.0667 94.9832 24.6533C94.9832 18.24 89.7673 13.06 83.6657 13.06Z" fill="white"/>
<path d="M99.8315 36H105.49V23.9133C105.49 20.9533 107.409 18.98 110.165 18.98C110.755 18.98 111.247 19.0787 111.592 19.128L112.133 19.2267V13.3067L111.641 13.208C111.297 13.1587 110.952 13.06 110.411 13.06C108.689 13.06 107.36 13.7013 106.425 14.4413C105.884 14.836 105.392 15.28 104.998 15.7733L104.014 13.3067H99.8315V36Z" fill="white"/>
<path d="M130.792 29.0933C130.546 29.4387 130.201 29.7347 129.808 29.9813C129.07 30.4253 128.135 30.82 126.609 30.82C123.657 30.82 121.984 29.0933 121.443 26.8733H137.189L137.287 26.1333C137.336 25.6893 137.435 25.196 137.435 24.6533C137.435 17.7467 132.514 13.06 126.609 13.06C120.508 13.06 115.292 18.24 115.292 24.6533C115.292 31.0667 120.508 36.2467 126.609 36.2467C131.727 36.2467 135.516 32.4973 136.697 29.0933H130.792ZM121.197 22.9267C121.738 20.4107 123.657 18.4867 126.609 18.4867C129.562 18.4867 131.481 20.4107 132.022 22.9267H121.197Z" fill="white"/>
<path d="M142.691 29.34C142.937 33.2867 145.89 36.2467 150.81 36.2467C155.485 36.2467 158.437 33.2867 158.437 29.5867C158.437 21.2 146.874 24.9493 146.874 19.9667C146.874 18.4373 148.35 17.0067 150.564 17.0067C153.074 17.0067 154.255 18.24 154.501 20.2133H158.191C157.945 16.2667 155.288 13.5533 150.564 13.5533C146.136 13.5533 143.183 16.5627 143.183 19.9667C143.183 28.4027 154.747 24.604 154.747 29.5867C154.747 31.3133 153.32 32.7933 150.81 32.7933C148.055 32.7933 146.628 31.3133 146.382 29.34H142.691Z" fill="white"/>
<path d="M165.992 28.8467C165.992 33.2867 168.994 36.2467 172.389 36.2467C173.078 36.2467 173.619 36.148 174.062 36C174.259 35.9507 174.455 35.852 174.603 35.7533V32.5467L174.259 32.6947C174.013 32.744 173.717 32.7933 173.373 32.7933C171.159 32.7933 169.682 31.3627 169.682 28.8467V17.2533H174.603V13.8H169.682V7.88H166.484V11.0867C166.484 12.912 165.598 13.8 163.778 13.8H162.055V17.2533H165.992V28.8467Z" fill="white"/>
<path d="M180.72 36H184.41V23.42C184.41 19.6707 186.822 17.2533 190.315 17.2533H191.299V13.5533H190.807C188.691 13.5533 187.166 14.1947 186.034 14.9347C185.395 15.3293 184.853 15.7733 184.41 16.2667L183.426 13.8H180.72V36Z" fill="white"/>
<path d="M210.677 30.08C209.939 31.116 208.167 32.7933 205.264 32.7933C201.771 32.7933 198.867 29.8333 198.621 26.6267H214.859L214.958 26.084C215.007 25.7387 215.105 25.2947 215.105 24.6533C215.105 17.944 210.431 13.5533 205.018 13.5533C199.655 13.5533 194.685 18.24 194.685 24.9C194.685 31.56 199.36 36.2467 205.264 36.2467C210.185 36.2467 213.137 33.2867 214.613 30.08H210.677ZM198.621 23.42C199.163 19.72 201.82 17.0067 205.018 17.0067C208.217 17.0067 210.874 19.72 211.415 23.42H198.621Z" fill="white"/>
<path d="M235.248 30.08C234.51 31.116 232.739 32.7933 229.835 32.7933C226.342 32.7933 223.439 29.8333 223.193 26.6267H239.431L239.529 26.084C239.578 25.7387 239.677 25.2947 239.677 24.6533C239.677 17.944 235.002 13.5533 229.589 13.5533C224.226 13.5533 219.256 18.24 219.256 24.9C219.256 31.56 223.931 36.2467 229.835 36.2467C234.756 36.2467 237.708 33.2867 239.185 30.08H235.248ZM223.193 23.42C223.734 19.72 226.391 17.0067 229.589 17.0067C232.788 17.0067 235.445 19.72 235.986 23.42H223.193Z" fill="white"/>
<path d="M247.026 28.8467C247.026 33.2867 250.027 36.2467 253.423 36.2467C254.111 36.2467 254.653 36.148 255.096 36C255.292 35.9507 255.489 35.852 255.637 35.7533V32.5467L255.292 32.6947C255.046 32.744 254.751 32.7933 254.407 32.7933C252.192 32.7933 250.716 31.3627 250.716 28.8467V17.2533H255.637V13.8H250.716V7.88H247.518V11.0867C247.518 12.912 246.632 13.8 244.811 13.8H243.089V17.2533H247.026V28.8467Z" fill="white"/>
</svg>
