<svg width="156" height="24" viewBox="0 0 156 24" fill="none" xmlns="http://www.w3.org/2000/svg">
<path d="M0 20.8C0 19.0327 1.43269 17.6 3.2 17.6C4.96731 17.6 6.4 19.0327 6.4 20.8C6.4 22.5673 4.96731 24 3.2 24C1.43269 24 0 22.5673 0 20.8Z" fill="#2E71E8"/>
<path d="M0 12C0 10.2327 1.43269 8.8 3.2 8.8H10C11.7673 8.8 13.2 10.2327 13.2 12C13.2 13.7673 11.7673 15.2 10 15.2H3.2C1.43269 15.2 0 13.7673 0 12Z" fill="#2E71E8"/>
<path d="M0 3.2C0 1.43269 1.43269 0 3.2 0H16.8C18.5673 0 20 1.43269 20 3.2C20 4.96731 18.5673 6.4 16.8 6.4H3.2C1.43269 6.4 0 4.96731 0 3.2Z" fill="#2E71E8"/>
<path d="M35.42 21.6H38.824V11.388H41.636V8.28H38.824V7.836C38.824 6.652 39.564 5.912 40.748 5.912C41.0736 5.912 41.2512 5.9712 41.3992 6.0008L41.636 6.06V3.1C41.488 3.0704 41.34 3.0112 41.1624 2.952C40.8368 2.8632 40.452 2.804 40.008 2.804C37.3144 2.804 35.42 4.728 35.42 7.688V8.28H33.792V11.388H35.42V21.6Z" fill="#323232"/>
<path d="M50.3291 11.092C52.2531 11.092 53.7331 12.5424 53.7331 14.792C53.7331 17.0416 52.2531 18.492 50.3291 18.492C48.4051 18.492 46.9251 17.0416 46.9251 14.792C46.9251 12.5424 48.4051 11.092 50.3291 11.092ZM50.3291 7.836C46.6587 7.836 43.5211 10.944 43.5211 14.792C43.5211 18.64 46.6587 21.748 50.3291 21.748C53.9995 21.748 57.1371 18.64 57.1371 14.792C57.1371 10.944 53.9995 7.836 50.3291 7.836Z" fill="#323232"/>
<path d="M60.0537 21.6H63.4577V14.348C63.4577 12.572 64.6121 11.388 66.2697 11.388C66.6249 11.388 66.9209 11.4472 67.1281 11.4768L67.4537 11.536V7.984L67.1577 7.9248C66.9505 7.8952 66.7433 7.836 66.4177 7.836C65.3817 7.836 64.5825 8.2208 64.0201 8.6648C63.6945 8.9016 63.3985 9.168 63.1617 9.464L62.5697 7.984H60.0537V21.6Z" fill="#323232"/>
<path d="M78.6779 17.456C78.5299 17.6632 78.3227 17.8408 78.0859 17.9888C77.6419 18.2552 77.0795 18.492 76.1619 18.492C74.3859 18.492 73.3795 17.456 73.0539 16.124H82.5259L82.5851 15.68C82.6147 15.4136 82.6739 15.1176 82.6739 14.792C82.6739 10.648 79.7139 7.836 76.1619 7.836C72.4915 7.836 69.3539 10.944 69.3539 14.792C69.3539 18.64 72.4915 21.748 76.1619 21.748C79.2403 21.748 81.5195 19.4984 82.2299 17.456H78.6779ZM72.9059 13.756C73.2315 12.2464 74.3859 11.092 76.1619 11.092C77.9379 11.092 79.0923 12.2464 79.4179 13.756H72.9059Z" fill="#323232"/>
<path d="M85.836 17.604C85.984 19.972 87.76 21.748 90.72 21.748C93.532 21.748 95.308 19.972 95.308 17.752C95.308 12.72 88.352 14.9696 88.352 11.98C88.352 11.0624 89.24 10.204 90.572 10.204C92.0816 10.204 92.792 10.944 92.94 12.128H95.16C95.012 9.76 93.4136 8.132 90.572 8.132C87.908 8.132 86.132 9.9376 86.132 11.98C86.132 17.0416 93.088 14.7624 93.088 17.752C93.088 18.788 92.2296 19.676 90.72 19.676C89.0624 19.676 88.204 18.788 88.056 17.604H85.836Z" fill="#323232"/>
<path d="M99.8525 17.308C99.8525 19.972 101.658 21.748 103.701 21.748C104.115 21.748 104.441 21.6888 104.707 21.6C104.825 21.5704 104.944 21.5112 105.033 21.452V19.528L104.825 19.6168C104.677 19.6464 104.5 19.676 104.293 19.676C102.961 19.676 102.073 18.8176 102.073 17.308V10.352H105.033V8.28H102.073V4.728H100.149V6.652C100.149 7.7472 99.6157 8.28 98.5205 8.28H97.4845V10.352H99.8525V17.308Z" fill="#323232"/>
<path d="M108.712 21.6H110.932V14.052C110.932 11.8024 112.383 10.352 114.484 10.352H115.076V8.132H114.78C113.507 8.132 112.59 8.5168 111.909 8.9608C111.524 9.1976 111.199 9.464 110.932 9.76L110.34 8.28H108.712V21.6Z" fill="#323232"/>
<path d="M126.733 18.048C126.289 18.6696 125.223 19.676 123.477 19.676C121.375 19.676 119.629 17.9 119.481 15.976H129.249L129.308 15.6504C129.338 15.4432 129.397 15.1768 129.397 14.792C129.397 10.7664 126.585 8.132 123.329 8.132C120.102 8.132 117.113 10.944 117.113 14.94C117.113 18.936 119.925 21.748 123.477 21.748C126.437 21.748 128.213 19.972 129.101 18.048H126.733ZM119.481 14.052C119.806 11.832 121.405 10.204 123.329 10.204C125.253 10.204 126.851 11.832 127.177 14.052H119.481Z" fill="#323232"/>
<path d="M141.514 18.048C141.07 18.6696 140.004 19.676 138.258 19.676C136.156 19.676 134.41 17.9 134.262 15.976H144.03L144.089 15.6504C144.118 15.4432 144.178 15.1768 144.178 14.792C144.178 10.7664 141.366 8.132 138.11 8.132C134.883 8.132 131.894 10.944 131.894 14.94C131.894 18.936 134.706 21.748 138.258 21.748C141.218 21.748 142.994 19.972 143.882 18.048H141.514ZM134.262 14.052C134.587 11.832 136.186 10.204 138.11 10.204C140.034 10.204 141.632 11.832 141.958 14.052H134.262Z" fill="#323232"/>
<path d="M148.598 17.308C148.598 19.972 150.404 21.748 152.446 21.748C152.861 21.748 153.186 21.6888 153.453 21.6C153.571 21.5704 153.69 21.5112 153.778 21.452V19.528L153.571 19.6168C153.423 19.6464 153.246 19.676 153.038 19.676C151.706 19.676 150.818 18.8176 150.818 17.308V10.352H153.778V8.28H150.818V4.728H148.894V6.652C148.894 7.7472 148.362 8.28 147.266 8.28H146.23V10.352H148.598V17.308Z" fill="#323232"/>
</svg>
